# xmcd
#
# Track frame offsets:
#  150
#  11045
#  32570
#  42475
#  67827
#  80492
#  95857
#  114467
#  125165
#  154900
#  169290
#  188187
#
# Disc length: 2732 seconds
#
# Revision: 1
# Processed by: cddbd v1.5.1PL2 Copyright (c) Steve Scherf et al.
# Submitted via: Collectorz.com_Music_Collector 6.11
#
DISCID=a40aaa0c
DTITLE=Eddie C. Campbell - Let's Pick It
DYEAR=1993
DGENRE=Blues
TTITLE0=Messin' With My Pride
TTITLE1=Albert King - Don't Throw Your Love On Me So Strong
TTITLE2=Sam Maghett - All My Whole Life
TTITLE3=J.L. Robinson - All Of My Life
TTITLE4=Double Dutch
TTITLE5=Jimmy Reed - Red Light
TTITLE6=Cold And Hungry
TTITLE7=Sam Maghett - Love Me With A Feeling
TTITLE8=Dream
TTITLE9=Let's Pick It
TTITLE10=Big Leg Mama
TTITLE11=Milton Campbell - Bob Lyons - That Will Never Do
EXTD=
EXTT0=
EXTT1=
EXTT2=
EXTT3=
EXTT4=
EXTT5=
EXTT6=
EXTT7=
EXTT8=
EXTT9=
EXTT10=
EXTT11=
PLAYORDER=
